<?xml version="1.0" encoding="UTF-8"?>
<svg xmlns="http://www.w3.org/2000/svg" viewBox="0 0 512 512" width="512" height="512">
  <!-- Axi Meeting Mode - Tie, professional expression -->
  <!-- Proportions: Head 30%, Gills 20%, Body 40%, Tail 10% -->
  <!-- Palette: Rosa Axi #FF6B9D, Verde Regeneración #00D4AA, Azul LifeOS #3282B8, Púrpura Profundo #1A1A2E, Blanco Hueso #E8E8E8 -->
  
  <defs>
    <linearGradient id="bodyGradient" x1="0%" y1="0%" x2="0%" y2="100%">
      <stop offset="0%" style="stop-color:#FF6B9D"/>
      <stop offset="100%" style="stop-color:#E8558A"/>
    </linearGradient>
    <linearGradient id="gillGradient" x1="0%" y1="0%" x2="100%" y2="0%">
      <stop offset="0%" style="stop-color:#FF6B9D"/>
      <stop offset="100%" style="stop-color:#FF8EB8"/>
    </linearGradient>
    <linearGradient id="tieGradient" x1="0%" y1="0%" x2="0%" y2="100%">
      <stop offset="0%" style="stop-color:#3282B8"/>
      <stop offset="100%" style="stop-color:#1A5A8A"/>
    </linearGradient>
  </defs>
  
  <!-- Tail -->
  <path d="M200 410 Q180 450 160 480 Q200 500 256 490 Q312 500 352 480 Q332 450 312 410" 
        fill="url(#bodyGradient)" stroke="#E8558A" stroke-width="3" stroke-linecap="round"/>
  
  <!-- Body -->
  <ellipse cx="256" cy="310" rx="120" ry="100" fill="url(#bodyGradient)" stroke="#E8558A" stroke-width="3"/>
  <ellipse cx="256" cy="330" rx="80" ry="60" fill="#FFB8D0" opacity="0.6"/>
  
  <!-- Tie -->
  <path d="M246 210 L256 230 L266 210 L260 215 L256 230 L252 215 Z" fill="url(#tieGradient)" stroke="#1A5A8A" stroke-width="2"/>
  <path d="M246 230 L256 400 L266 230" fill="url(#tieGradient)" stroke="#1A5A8A" stroke-width="2"/>
  <!-- Tie knot -->
  <rect x="248" y="210" width="16" height="12" rx="2" fill="url(#tieGradient)" stroke="#1A5A8A" stroke-width="1"/>
  
  <!-- Small legs -->
  <ellipse cx="200" cy="400" rx="25" ry="15" fill="url(#bodyGradient)" stroke="#E8558A" stroke-width="2"/>
  <ellipse cx="312" cy="400" rx="25" ry="15" fill="url(#bodyGradient)" stroke="#E8558A" stroke-width="2"/>
  
  <!-- Gills - slightly more composed -->
  <path d="M130 160 Q100 170 90 195 Q110 190 130 180" fill="url(#gillGradient)" stroke="#FF8EB8" stroke-width="2"/>
  <path d="M125 175 Q95 185 85 210 Q105 205 125 195" fill="url(#gillGradient)" stroke="#FF8EB8" stroke-width="2"/>
  <path d="M120 190 Q90 200 80 225 Q100 220 120 210" fill="url(#gillGradient)" stroke="#FF8EB8" stroke-width="2"/>
  <path d="M382 160 Q412 170 422 195 Q402 190 382 180" fill="url(#gillGradient)" stroke="#FF8EB8" stroke-width="2"/>
  <path d="M387 175 Q417 185 427 210 Q407 205 387 195" fill="url(#gillGradient)" stroke="#FF8EB8" stroke-width="2"/>
  <path d="M392 190 Q422 200 432 225 Q412 220 392 210" fill="url(#gillGradient)" stroke="#FF8EB8" stroke-width="2"/>
  
  <!-- Head -->
  <ellipse cx="256" cy="90" rx="130" ry="90" fill="url(#bodyGradient)" stroke="#E8558A" stroke-width="3"/>
  
  <!-- Eyes - Professional expression -->
  <ellipse cx="200" cy="80" rx="30" ry="32" fill="#E8E8E8"/>
  <ellipse cx="312" cy="80" rx="30" ry="32" fill="#E8E8E8"/>
  <ellipse cx="205" cy="82" rx="15" ry="16" fill="#1A1A2E"/>
  <ellipse cx="317" cy="82" rx="15" ry="16" fill="#1A1A2E"/>
  <circle cx="210" cy="78" r="5" fill="#FFFFFF"/>
  <circle cx="322" cy="78" r="5" fill="#FFFFFF"/>
  
  <!-- Professional smile -->
  <path d="M225 125 Q256 140 287 125" fill="none" stroke="#1A1A2E" stroke-width="4" stroke-linecap="round"/>
  
  <!-- Rosy cheeks (subtle) -->
  <ellipse cx="165" cy="105" rx="16" ry="9" fill="#FF8EB8" opacity="0.4"/>
  <ellipse cx="347" cy="105" rx="16" ry="9" fill="#FF8EB8" opacity="0.4"/>
</svg>
