<?xml version="1.0" encoding="UTF-8"?>
<svg xmlns="http://www.w3.org/2000/svg" viewBox="0 0 3840 2160">
  <title>LifeOS Axi Night — Xochimilco Night Variant</title>
  <desc>Night variant of the canonical LifeOS wallpaper, centered on Axi the axolotl.</desc>
  <defs>
    <linearGradient id="bg" x1="0%" y1="0%" x2="100%" y2="100%">
      <stop offset="0%" stop-color="#05070E"/>
      <stop offset="48%" stop-color="#0F0F1B"/>
      <stop offset="100%" stop-color="#14172C"/>
    </linearGradient>
    <radialGradient id="tealAura" cx="76%" cy="36%" r="36%">
      <stop offset="0%" stop-color="#00D4AA" stop-opacity="0.26"/>
      <stop offset="100%" stop-color="#00D4AA" stop-opacity="0"/>
    </radialGradient>
    <radialGradient id="pinkAura" cx="66%" cy="48%" r="20%">
      <stop offset="0%" stop-color="#FF6B9D" stop-opacity="0.18"/>
      <stop offset="100%" stop-color="#FF6B9D" stop-opacity="0"/>
    </radialGradient>
    <linearGradient id="bodyFill" x1="0%" y1="0%" x2="100%" y2="100%">
      <stop offset="0%" stop-color="#2AF0C3"/>
      <stop offset="70%" stop-color="#00D4AA"/>
      <stop offset="100%" stop-color="#009978"/>
    </linearGradient>
    <linearGradient id="gillFill" x1="0%" y1="0%" x2="100%" y2="100%">
      <stop offset="0%" stop-color="#FFC5DA"/>
      <stop offset="65%" stop-color="#FF6B9D"/>
      <stop offset="100%" stop-color="#DB4A7F"/>
    </linearGradient>
    <filter id="blur" x="-20%" y="-20%" width="140%" height="140%">
      <feGaussianBlur stdDeviation="20"/>
    </filter>
  </defs>
  <rect width="3840" height="2160" fill="url(#bg)"/>
  <rect width="3840" height="2160" fill="url(#tealAura)"/>
  <rect width="3840" height="2160" fill="url(#pinkAura)"/>
  <ellipse cx="2740" cy="1600" rx="1500" ry="520" fill="#00D4AA" opacity="0.06" filter="url(#blur)"/>
  <g opacity="0.5">
    <circle cx="430" cy="240" r="2" fill="#E8E8E8"/>
    <circle cx="910" cy="180" r="2" fill="#E8E8E8" opacity="0.8"/>
    <circle cx="1480" cy="420" r="2" fill="#00D4AA" opacity="0.7"/>
    <circle cx="1990" cy="250" r="2" fill="#E8E8E8"/>
    <circle cx="3160" cy="330" r="2" fill="#FF6B9D" opacity="0.7"/>
    <circle cx="3350" cy="620" r="2" fill="#E8E8E8"/>
    <circle cx="2910" cy="860" r="2" fill="#00D4AA" opacity="0.7"/>
  </g>
  <g opacity="0.14" fill="#0A1118">
    <path d="M0 2160 L0 1840 C110 1800 150 1680 220 1500 C290 1720 330 1820 440 2160 Z"/>
    <path d="M2960 2160 L2960 1790 C3040 1760 3100 1610 3150 1450 C3220 1650 3280 1800 3380 2160 Z"/>
    <path d="M3300 2160 L3300 1840 C3380 1810 3440 1700 3490 1520 C3550 1725 3600 1845 3705 2160 Z"/>
  </g>
  <g transform="translate(30 20)">
    <path d="M3270 1310 C3470 1325 3650 1455 3710 1635 C3530 1605 3375 1545 3260 1450 C3180 1385 3175 1318 3270 1310 Z" fill="url(#bodyFill)"/>
    <ellipse cx="2980" cy="1365" rx="455" ry="270" fill="url(#bodyFill)"/>
    <ellipse cx="2580" cy="1180" rx="255" ry="195" fill="url(#bodyFill)"/>
    <ellipse cx="2995" cy="1380" rx="300" ry="165" fill="#B7FFF3" opacity="0.13"/>
    <ellipse cx="2820" cy="1620" rx="92" ry="44" fill="url(#bodyFill)" opacity="0.92"/>
    <ellipse cx="3090" cy="1628" rx="98" ry="46" fill="url(#bodyFill)" opacity="0.92"/>
    <g>
      <path d="M2455 1065 C2310 1000 2240 890 2235 760 C2350 790 2455 845 2515 935 Z" fill="url(#gillFill)"/>
      <path d="M2400 1130 C2245 1110 2120 1010 2065 875 C2205 880 2335 940 2430 1035 Z" fill="url(#gillFill)" opacity="0.96"/>
      <path d="M2420 1205 C2250 1225 2120 1175 2020 1080 C2165 1045 2325 1065 2440 1128 Z" fill="url(#gillFill)" opacity="0.9"/>
      <path d="M2710 1060 C2845 995 2930 890 2950 760 C2835 790 2735 845 2665 934 Z" fill="url(#gillFill)"/>
      <path d="M2765 1128 C2925 1110 3055 1010 3110 875 C2965 880 2835 938 2738 1035 Z" fill="url(#gillFill)" opacity="0.96"/>
      <path d="M2750 1200 C2920 1220 3055 1170 3155 1080 C3008 1045 2848 1063 2730 1126 Z" fill="url(#gillFill)" opacity="0.9"/>
    </g>
    <ellipse cx="2498" cy="1150" rx="34" ry="42" fill="#E8E8E8"/>
    <ellipse cx="2680" cy="1158" rx="30" ry="38" fill="#E8E8E8" opacity="0.92"/>
    <ellipse cx="2510" cy="1160" rx="16" ry="22" fill="#0F0F1B"/>
    <ellipse cx="2688" cy="1168" rx="14" ry="20" fill="#0F0F1B" opacity="0.92"/>
    <circle cx="2518" cy="1148" r="5" fill="#FFFFFF"/>
    <circle cx="2694" cy="1158" r="4" fill="#FFFFFF" opacity="0.92"/>
  </g>
</svg>
