<?xml version="1.0" encoding="UTF-8"?>
<svg xmlns="http://www.w3.org/2000/svg" viewBox="0 0 3840 2160">
  <title>LifeOS Dark Wallpaper</title>
  <desc>Dark atmospheric LifeOS wallpaper with a subtle axolotl silhouette.</desc>
  <defs>
    <linearGradient id="bg" x1="0%" y1="0%" x2="100%" y2="100%">
      <stop offset="0%" stop-color="#060810"/>
      <stop offset="55%" stop-color="#0F0F1B"/>
      <stop offset="100%" stop-color="#15192B"/>
    </linearGradient>
    <radialGradient id="glow" cx="72%" cy="40%" r="30%">
      <stop offset="0%" stop-color="#00D4AA" stop-opacity="0.18"/>
      <stop offset="100%" stop-color="#00D4AA" stop-opacity="0"/>
    </radialGradient>
    <radialGradient id="pink" cx="67%" cy="52%" r="16%">
      <stop offset="0%" stop-color="#FF6B9D" stop-opacity="0.1"/>
      <stop offset="100%" stop-color="#FF6B9D" stop-opacity="0"/>
    </radialGradient>
  </defs>
  <rect width="3840" height="2160" fill="url(#bg)"/>
  <rect width="3840" height="2160" fill="url(#glow)"/>
  <rect width="3840" height="2160" fill="url(#pink)"/>
  <ellipse cx="2700" cy="1580" rx="1480" ry="460" fill="#00D4AA" opacity="0.04"/>
  <g opacity="0.18" fill="#102127">
    <ellipse cx="2960" cy="1360" rx="430" ry="255"/>
    <ellipse cx="2580" cy="1180" rx="240" ry="185"/>
    <path d="M3270 1310 C3470 1325 3650 1455 3710 1635 C3530 1605 3375 1545 3260 1450 C3180 1385 3175 1318 3270 1310 Z"/>
  </g>
  <g opacity="0.42" fill="#FF6B9D">
    <path d="M2455 1065 C2310 1000 2240 890 2235 760 C2350 790 2455 845 2515 935 Z"/>
    <path d="M2710 1060 C2845 995 2930 890 2950 760 C2835 790 2735 845 2665 934 Z"/>
  </g>
</svg>
