<svg xmlns="http://www.w3.org/2000/svg" viewBox="0 0 512 512">
  <rect x="112" y="48" width="288" height="416" rx="24" fill="#E8E8E8"/><rect x="136" y="80" width="240" height="80" rx="8" fill="#E8E8E8" opacity="0.3"/><rect x="148" y="192" width="48" height="48" rx="8" fill="#E8E8E8" opacity="0.5"/><rect x="220" y="192" width="48" height="48" rx="8" fill="#E8E8E8" opacity="0.5"/><rect x="292" y="192" width="72" height="48" rx="8" fill="#E8E8E8"/><rect x="148" y="264" width="48" height="48" rx="8" fill="#E8E8E8" opacity="0.5"/><rect x="220" y="264" width="48" height="48" rx="8" fill="#E8E8E8" opacity="0.5"/><rect x="292" y="264" width="72" height="48" rx="8" fill="#E8E8E8" opacity="0.5"/><rect x="148" y="336" width="48" height="48" rx="8" fill="#E8E8E8" opacity="0.5"/><rect x="220" y="336" width="48" height="48" rx="8" fill="#E8E8E8" opacity="0.5"/><rect x="292" y="336" width="72" height="120" rx="8" fill="#E8E8E8"/><rect x="148" y="408" width="120" height="48" rx="8" fill="#E8E8E8" opacity="0.5"/>
</svg>
