<svg xmlns="http://www.w3.org/2000/svg" viewBox="0 0 512 512">
  <rect x="48" y="48" width="416" height="416" rx="104" fill="#161830"/>
  <g>
    <path d="M180 196 C126 184 92 148 84 102 C130 114 172 138 202 172 Z" fill="#FF6B9D"/>
    <path d="M168 244 C106 246 62 226 34 188 C92 178 146 188 192 214 Z" fill="#FF6B9D"/>
    <path d="M332 196 C386 184 420 148 428 102 C382 114 340 138 310 172 Z" fill="#FF6B9D"/>
    <path d="M344 244 C406 246 450 226 478 188 C420 178 366 188 320 214 Z" fill="#FF6B9D"/>
    <ellipse cx="256" cy="250" rx="150" ry="116" fill="#00D4AA"/>
    <ellipse cx="256" cy="364" rx="118" ry="76" fill="#00D4AA"/>
    <path d="M180 388 C164 420 158 448 160 472 C194 466 224 450 246 426" fill="#00D4AA"/>
    <path d="M332 388 C348 420 354 448 352 472 C318 466 288 450 266 426" fill="#00D4AA"/>
    <ellipse cx="202" cy="232" rx="26" ry="32" fill="#E8E8E8"/>
    <ellipse cx="310" cy="232" rx="24" ry="30" fill="#E8E8E8"/>
    <ellipse cx="208" cy="238" rx="12" ry="16" fill="#0F0F1B"/>
    <ellipse cx="316" cy="238" rx="11" ry="15" fill="#0F0F1B"/>
    <circle cx="212" cy="230" r="4" fill="#FFFFFF"/>
    <circle cx="320" cy="230" r="4" fill="#FFFFFF"/>
    <path d="M214 290 C240 306 272 306 298 290" fill="none" stroke="#0F0F1B" stroke-width="8" stroke-linecap="round" opacity="0.55"/>
  </g>
</svg>
