<svg xmlns="http://www.w3.org/2000/svg" viewBox="0 0 512 512">
  <rect x="48" y="48" width="416" height="416" rx="100" fill="#E8E8E8"/>
  <path d="M280 96 L280 136 C296 140 310 148 322 158 L358 138 L392 196 L356 216 C358 228 358 240 356 252 L392 272 L358 330 L322 310 C310 320 296 328 280 332 L280 372 L232 372 L232 332 C216 328 202 320 190 310 L154 330 L120 272 L156 252 C154 240 154 228 156 216 L120 196 L154 138 L190 158 C202 148 216 140 232 136 L232 96 Z" fill="#E8E8E8"/>
  <circle cx="256" cy="234" r="52" fill="#E8E8E8"/>
</svg>
