<svg xmlns="http://www.w3.org/2000/svg" viewBox="0 0 512 512">
  <path d="M48 96 C48 69.5 69.5 48 96 48 L208 48 C224 48 238 56 246 69 L272 112 L416 112 C442.5 112 464 133.5 464 160 L464 416 C464 442.5 442.5 464 416 464 L96 464 C69.5 464 48 442.5 48 416 Z" fill="#E8E8E8"/>
  <path d="M48 96 C48 69.5 69.5 48 96 48 L208 48 C224 48 238 56 246 69 L272 112 L464 112 L464 160 L48 160 Z" fill="#E8E8E8"/>
  <path d="M48 192 L464 192" stroke="#E8E8E8" stroke-width="4" opacity="0.3"/>
  <circle cx="240" cy="292" r="52" fill="none" stroke="#E8E8E8" stroke-width="12" opacity="0.5"/>
  <line x1="278" y1="330" x2="316" y2="368" stroke="#E8E8E8" stroke-width="16" stroke-linecap="round" opacity="0.5"/>
</svg>
